<svg width="116" height="208" viewBox="0 0 116 208" fill="none" xmlns="http://www.w3.org/2000/svg">
<path d="M40.8086 147.945L38.8089 147.912L38.7747 149.945H40.8086V147.945ZM58.4453 101.324L57.01 99.9314L56.9902 99.9518L56.971 99.9728L58.4453 101.324ZM76.3555 82.8672L77.7908 84.26L77.8231 84.2267L77.8538 84.192L76.3555 82.8672ZM80.3203 32.5547L78.846 33.9061L78.8517 33.9123L78.8574 33.9184L80.3203 32.5547ZM27.5469 51.5586V53.5586H29.5469V51.5586H27.5469ZM2.25391 51.5586L0.254059 51.5339L0.229062 53.5586H2.25391V51.5586ZM17.9766 15.875L19.2945 17.3793L19.2954 17.3785L17.9766 15.875ZM98.6406 16.1484L97.2471 17.583L97.254 17.5897L97.261 17.5964L98.6406 16.1484ZM90.9844 101.324L92.3921 102.745L92.4124 102.725L92.4322 102.704L90.9844 101.324ZM76.082 116.09L74.6743 114.669L74.6342 114.709L74.5964 114.751L76.082 116.09ZM66.1016 147.945V149.945H68.1016V147.945H66.1016ZM43.4062 181.031L41.922 179.691L41.9197 179.693L43.4062 181.031ZM65.8281 181.031L64.3439 182.372L64.3549 182.384L64.366 182.396L65.8281 181.031ZM65.8281 201.539L67.2669 202.928L67.2787 202.916L67.2902 202.904L65.8281 201.539ZM43.4062 201.539L41.9197 202.877L41.9431 202.903L41.9674 202.928L43.4062 201.539ZM42.8083 147.979C42.9889 137.234 44.2091 128.916 46.3804 122.923L42.6196 121.561C40.2336 128.146 38.9929 136.964 38.8089 147.912L42.8083 147.979ZM46.3804 122.923C48.5335 116.981 52.9916 110.233 59.9196 102.676L56.971 99.9728C49.8625 107.727 45.0238 114.925 42.6196 121.561L46.3804 122.923ZM59.8806 102.717L77.7908 84.26L74.9202 81.4744L57.01 99.9314L59.8806 102.717ZM77.8538 84.192C85.7772 75.2309 89.8398 65.4779 89.8398 54.9766H85.8398C85.8398 64.345 82.2462 73.1857 74.8572 81.5424L77.8538 84.192ZM89.8398 54.9766C89.8398 45.0575 87.2356 37.0398 81.7832 31.1909L78.8574 33.9184C83.4311 38.8248 85.8398 45.755 85.8398 54.9766H89.8398ZM81.7946 31.2032C76.3002 25.2093 68.4039 22.3516 58.4453 22.3516V26.3516C67.6273 26.3516 74.3144 28.9625 78.846 33.9061L81.7946 31.2032ZM58.4453 22.3516C48.7861 22.3516 40.8067 24.9161 34.7099 30.2262L37.337 33.2425C42.5423 28.7089 49.5108 26.3516 58.4453 26.3516V22.3516ZM34.7099 30.2262C28.5731 35.5712 25.5469 42.7553 25.5469 51.5586H29.5469C29.5469 43.7734 32.1717 37.7413 37.337 33.2425L34.7099 30.2262ZM27.5469 49.5586H2.25391V53.5586H27.5469V49.5586ZM4.25375 51.5833C4.42966 37.3353 9.45827 25.9969 19.2945 17.3793L16.6586 14.3707C5.8959 23.7999 0.44274 36.2507 0.254059 51.5339L4.25375 51.5833ZM19.2954 17.3785C29.2512 8.64536 42.2401 4.20312 58.4453 4.20312V0.203125C41.4734 0.203125 27.4831 4.87548 16.6577 14.3715L19.2954 17.3785ZM58.4453 4.20312C75.3091 4.20312 88.1495 8.74541 97.2471 17.583L100.034 14.7139C89.9911 4.95771 76.0347 0.203125 58.4453 0.203125V4.20312ZM97.261 17.5964C106.445 26.3475 111.133 38.4476 111.133 54.1562H115.133C115.133 37.5993 110.159 24.3609 100.02 14.7005L97.261 17.5964ZM111.133 54.1562C111.133 69.4377 104.072 84.6915 89.5365 99.9445L92.4322 102.704C107.428 86.9673 115.133 70.7758 115.133 54.1562H111.133ZM89.5767 99.9035L74.6743 114.669L77.4897 117.511L92.3921 102.745L89.5767 99.9035ZM74.5964 114.751C67.5009 122.624 64.1016 133.792 64.1016 147.945H68.1016C68.1016 134.391 71.3559 124.321 77.5677 117.429L74.5964 114.751ZM66.1016 145.945H40.8086V149.945H66.1016V145.945ZM41.7148 191.285C41.7148 187.617 42.8012 184.693 44.8928 182.369L41.9197 179.693C39.0894 182.838 37.7148 186.751 37.7148 191.285H41.7148ZM44.8905 182.372C46.9596 180.081 50.0853 178.793 54.6172 178.793V174.793C49.3054 174.793 44.957 176.331 41.922 179.691L44.8905 182.372ZM54.6172 178.793C59.1491 178.793 62.2747 180.081 64.3439 182.372L67.3123 179.691C64.2773 176.331 59.929 174.793 54.6172 174.793V178.793ZM64.366 182.396C66.5378 184.723 67.6562 187.637 67.6562 191.285H71.6562C71.6562 186.73 70.2227 182.809 67.2902 179.667L64.366 182.396ZM67.6562 191.285C67.6562 194.933 66.5378 197.848 64.366 200.174L67.2902 202.904C70.2227 199.762 71.6562 195.84 71.6562 191.285H67.6562ZM64.3893 200.15C62.3289 202.284 59.1875 203.504 54.6172 203.504V207.504C59.8906 207.504 64.2232 206.081 67.2669 202.928L64.3893 200.15ZM54.6172 203.504C50.0468 203.504 46.9055 202.284 44.8451 200.15L41.9674 202.928C45.0112 206.081 49.3438 207.504 54.6172 207.504V203.504ZM44.8928 200.201C42.8012 197.877 41.7148 194.954 41.7148 191.285H37.7148C37.7148 195.82 39.0894 199.732 41.9197 202.877L44.8928 200.201Z" fill="black"/>
</svg>
